<?xml version="1.0" encoding="UTF-8"?>
<svg version="1.1" xmlns="http://www.w3.org/2000/svg" width="24" height="24">
<path d="M0 0 C0.74765625 0.0721875 1.4953125 0.144375 2.265625 0.21875 C3.25046875 0.3115625 4.2353125 0.404375 5.25 0.5 C6.22453125 0.5928125 7.1990625 0.685625 8.203125 0.78125 C10.46302153 0.95800168 12.73320193 1 15 1 C18 3 18 3 18.80078125 6.58984375 C18.98553751 8.03732267 19.15555782 9.48674183 19.3125 10.9375 C19.46041992 12.03094727 19.46041992 12.03094727 19.61132812 13.14648438 C20.25773647 18.61339529 20.25773647 18.61339529 18 22 C15.40729301 22.54475978 12.99548055 22.92400149 10.375 23.1875 C9.31539062 23.3102832 9.31539062 23.3102832 8.234375 23.43554688 C6.4909317 23.63580725 4.74559914 23.81949401 3 24 C2.67 22.68 2.34 21.36 2 20 C0.35 19.67 -1.3 19.34 -3 19 C-2.88534579 16.77027727 -2.75785234 14.54121247 -2.625 12.3125 C-2.55539063 11.07113281 -2.48578125 9.82976563 -2.4140625 8.55078125 C-2.03577906 5.30682228 -1.38020024 2.93432815 0 0 Z " fill="#292711" transform="translate(4,0)"/>
<path d="M0 0 C0.99 0 1.98 0 3 0 C3.33 3.96 3.66 7.92 4 12 C3.01 12.33 2.02 12.66 1 13 C0.26676204 15.01508358 0.26676204 15.01508358 0 17 C-3.94020358 18.26086514 -6.47580299 18 -11 18 C-11.33 12.72 -11.66 7.44 -12 2 C-3.25 0.875 -3.25 0.875 -1 2 C-0.67 1.34 -0.34 0.68 0 0 Z " fill="#BA9D2E" transform="translate(18,4)"/>
<path d="M0 0 C0.66 1.32 1.32 2.64 2 4 C1.01 4.33 0.02 4.66 -1 5 C-1.73323796 7.01508358 -1.73323796 7.01508358 -2 9 C-5.67410785 10.17571451 -9.16929183 10.07366746 -13 10 C-13 7.36 -13 4.72 -13 2 C-8.71 1.34 -4.42 0.68 0 0 Z " fill="#DAB736" transform="translate(20,12)"/>
<path d="M0 0 C3.63 0.33 7.26 0.66 11 1 C11 1.33 11 1.66 11 2 C7.7 2.33 4.4 2.66 1 3 C1.33 7.62 1.66 12.24 2 17 C0.68 16.67 -0.64 16.34 -2 16 C-1.85764543 14.27054347 -1.71095618 12.54144346 -1.5625 10.8125 C-1.48128906 9.84957031 -1.40007812 8.88664063 -1.31640625 7.89453125 C-1.02650639 5.24248442 -0.52320735 2.61603677 0 0 Z " fill="#24A1DA" transform="translate(4,2)"/>
<path d="M0 0 C0.99 0 1.98 0 3 0 C3.042721 1.66611905 3.04063832 3.33382885 3 5 C2 6 2 6 0.15234375 6.09765625 C-1.8984375 6.06510417 -3.94921875 6.03255208 -6 6 C-6 5.67 -6 5.34 -6 5 C-4.35 4.67 -2.7 4.34 -1 4 C-3.64 4 -6.28 4 -9 4 C-9 5.98 -9 7.96 -9 10 C-9.33 10 -9.66 10 -10 10 C-10 7.69 -10 5.38 -10 3 C-6.52674819 1.8422494 -3.63932552 1.93133348 0 2 C0 1.34 0 0.68 0 0 Z " fill="#574725" transform="translate(15,2)"/>
<path d="M0 0 C0.99 0 1.98 0 3 0 C3 2.31 3 4.62 3 7 C-1.40914783 8.10228696 -5.48382401 8.07654536 -10 8 C-10 7.67 -10 7.34 -10 7 C-6.7 6.34 -3.4 5.68 0 5 C-0.33 4.34 -0.66 3.68 -1 3 C-0.67 2.01 -0.34 1.02 0 0 Z " fill="#F3CD3D" transform="translate(18,4)"/>
</svg>
